# xmcd
#
# Track frame offsets:
#	150
#	12250
#	25807
#	37502
#	56195
#	69690
#	84705
#	97485
#	109762
#	123480
#
# Disc length: 1840
#
# Revision: 2
# Processed by: cddbd v1.5.1PL0 Copyright (c) Steve Scherf et al.
# Submitted via: ExactAudioCopy v0.90b2
# Normalized: r0:DSETVAR1,TDELIM( - ),TSWAP
#
DISCID=85072e0a
DTITLE=Various Artist - Country Favorites Of The 80's
DYEAR=1900
DGENRE=Country
TTITLE0=The Oak Ridge Boys - Elvira
TTITLE1=Terri Gibbs - Somebody's Knockin'
TTITLE2=Lacy J. Dalton - Hard Times
TTITLE3=Juice Newton - The Sweetest Thing (I've Ever Known)
TTITLE4=B.J. Thomas - New Looks From An Old Lover
TTITLE5=Sylvia - Nobody
TTITLE6=Exile - Give Me One More Chance
TTITLE7=Ronnie McDowell - Watchin' Girls Go By
TTITLE8=Willie Nelson and Leon Russell - Heartbreak Hotel
TTITLE9=Ronnie Milsap - (There's) No Getting Over Me
EXTD=
EXTT0=
EXTT1=
EXTT2=
EXTT3=
EXTT4=
EXTT5=
EXTT6=
EXTT7=
EXTT8=
EXTT9=
PLAYORDER=
